<svg width="24" height="24" viewBox="0 0 24 24" fill="none" xmlns="http://www.w3.org/2000/svg">
<path fill-rule="evenodd" clip-rule="evenodd" d="M7.56115 5.28511C6.47644 6.29441 5.75 7.87887 5.75 10.2C5.75 12.483 6.79505 15.0356 8.17936 17.0374C8.86696 18.0317 9.6169 18.8583 10.3226 19.4278C11.0537 20.0179 11.6351 20.25 12 20.25C12.3649 20.25 12.9463 20.0179 13.6774 19.4278C14.3831 18.8583 15.133 18.0317 15.8206 17.0374C17.2049 15.0356 18.25 12.483 18.25 10.2C18.25 7.87887 17.5236 6.29441 16.4388 5.28511C15.3442 4.26654 13.7944 3.75 12 3.75C10.2056 3.75 8.65583 4.26654 7.56115 5.28511ZM6.53935 4.18697C7.97818 2.84818 9.9284 2.25 12 2.25C14.0716 2.25 16.0218 2.84818 17.4606 4.18697C18.9094 5.53503 19.75 7.55056 19.75 10.2C19.75 12.8876 18.5451 15.735 17.0544 17.8906C16.3045 18.9749 15.4606 19.9163 14.6195 20.5951C13.8038 21.2534 12.8851 21.75 12 21.75C11.1149 21.75 10.1963 21.2534 9.38055 20.5951C8.53935 19.9163 7.69554 18.9749 6.94564 17.8906C5.45495 15.735 4.25 12.8876 4.25 10.2C4.25 7.55056 5.09056 5.53503 6.53935 4.18697Z" fill="black"/>
<path fill-rule="evenodd" clip-rule="evenodd" d="M12 7.75C10.7574 7.75 9.75 8.75736 9.75 10C9.75 11.2426 10.7574 12.25 12 12.25C13.2426 12.25 14.25 11.2426 14.25 10C14.25 8.75736 13.2426 7.75 12 7.75ZM8.25 10C8.25 7.92893 9.92893 6.25 12 6.25C14.0711 6.25 15.75 7.92893 15.75 10C15.75 12.0711 14.0711 13.75 12 13.75C9.92893 13.75 8.25 12.0711 8.25 10Z" fill="black"/>
</svg>
