<svg width="24" height="24" viewBox="0 0 24 24" fill="none" xmlns="http://www.w3.org/2000/svg">
<path d="M5 11V17C5 19.2091 6.79086 21 9 21H15C17.2091 21 19 19.2091 19 17V11" stroke="#464646" stroke-width="1.5"/>
<path d="M16.2919 3H7.70813C6.07251 3 4.60168 3.9958 3.99422 5.51444L3.42914 6.92715C3.14565 7.63587 2.93202 8.42014 3.21905 9.12743C3.6647 10.2256 4.74191 11 6 11C7.65685 11 9 9.65685 9 8C9 9.65685 10.3431 11 12 11C13.6569 11 15 9.65685 15 8C15 9.65685 16.3431 11 18 11C19.2581 11 20.3353 10.2256 20.7809 9.12743C21.068 8.42014 20.8543 7.63587 20.5709 6.92715L20.0058 5.51444C19.3983 3.9958 17.9275 3 16.2919 3Z" stroke="#464646" stroke-width="1.5" stroke-linejoin="round"/>
</svg>
