<svg width="158" height="111" viewBox="0 0 158 111" fill="none" xmlns="http://www.w3.org/2000/svg">
<path d="M83.0625 54.375H62.4375C61.6916 54.375 60.9762 54.0787 60.4488 53.5512C59.9213 53.0238 59.625 52.3084 59.625 51.5625V49.6875C59.625 49.4389 59.7238 49.2004 59.8996 49.0246C60.0754 48.8488 60.3139 48.75 60.5625 48.75H77.4375C77.6861 48.75 77.9246 48.6512 78.1004 48.4754C78.2762 48.2996 78.375 48.0611 78.375 47.8125C78.375 47.5639 78.2762 47.3254 78.1004 47.1496C77.9246 46.9738 77.6861 46.875 77.4375 46.875H63.375V25.3125C63.375 25.0639 63.2762 24.8254 63.1004 24.6496C62.9246 24.4738 62.6861 24.375 62.4375 24.375C62.1889 24.375 61.9504 24.4738 61.7746 24.6496C61.5988 24.8254 61.5 25.0639 61.5 25.3125V46.875H60.5625C59.8166 46.875 59.1012 47.1713 58.5738 47.6988C58.0463 48.2262 57.75 48.9416 57.75 49.6875V51.5625C57.7515 52.8052 58.2458 53.9967 59.1246 54.8754C60.0033 55.7542 61.1948 56.2485 62.4375 56.25H83.0625C83.3111 56.25 83.5496 56.1512 83.7254 55.9754C83.9012 55.7996 84 55.5611 84 55.3125C84 55.0639 83.9012 54.8254 83.7254 54.6496C83.5496 54.4738 83.3111 54.375 83.0625 54.375Z" fill="url(#paint0_linear_4941_5816)"/>
<path d="M63.375 14.0625C63.3775 11.8255 64.2672 9.68083 65.849 8.09903C67.4308 6.51723 69.5755 5.62748 71.8125 5.625H92.9353C92.0107 6.65515 91.4995 7.99074 91.5 9.375V21.5625C91.5 21.8111 91.5988 22.0496 91.7746 22.2254C91.9504 22.4012 92.1889 22.5 92.4375 22.5C92.6861 22.5 92.9246 22.4012 93.1004 22.2254C93.2762 22.0496 93.375 21.8111 93.375 21.5625V9.375C93.375 8.38044 93.7701 7.42661 94.4734 6.72335C95.1766 6.02009 96.1304 5.625 97.125 5.625C98.1196 5.625 99.0734 6.02009 99.7766 6.72335C100.48 7.42661 100.875 8.38044 100.875 9.375V19.6875C100.875 20.5312 99.5625 20.625 99 20.625H96.1875C95.9389 20.625 95.7004 20.7238 95.5246 20.8996C95.3488 21.0754 95.25 21.3139 95.25 21.5625C95.25 21.8111 95.3488 22.0496 95.5246 22.2254C95.7004 22.4012 95.9389 22.5 96.1875 22.5H99C101.765 22.5 102.75 21.0469 102.75 19.6875V9.375C102.749 7.88361 102.155 6.45374 101.101 5.39917C100.046 4.3446 98.6164 3.75149 97.125 3.75H71.8125C69.0784 3.75323 66.4573 4.84075 64.524 6.77402C62.5908 8.70729 61.5032 11.3284 61.5 14.0625V15.9375C61.5 16.1861 61.5988 16.4246 61.7746 16.6004C61.9504 16.7762 62.1889 16.875 62.4375 16.875C62.6861 16.875 62.9246 16.7762 63.1004 16.6004C63.2762 16.4246 63.375 16.1861 63.375 15.9375V14.0625Z" fill="url(#paint1_linear_4941_5816)"/>
<path d="M62.4375 18.75C62.1889 18.75 61.9504 18.8488 61.7746 19.0246C61.5988 19.2004 61.5 19.4389 61.5 19.6875V21.5625C61.5 21.8111 61.5988 22.0496 61.7746 22.2254C61.9504 22.4012 62.1889 22.5 62.4375 22.5C62.6861 22.5 62.9246 22.4012 63.1004 22.2254C63.2762 22.0496 63.375 21.8111 63.375 21.5625V19.6875C63.375 19.4389 63.2762 19.2004 63.1004 19.0246C62.9246 18.8488 62.6861 18.75 62.4375 18.75Z" fill="url(#paint2_linear_4941_5816)"/>
<path d="M104.711 49.7962C104.411 50.1074 104.108 50.4102 103.796 50.7102C103.7 50.7936 103.622 50.8956 103.567 51.0101C103.511 51.1246 103.479 51.2492 103.474 51.3764C103.468 51.5035 103.488 51.6305 103.533 51.7496C103.578 51.8687 103.646 51.9774 103.735 52.0691C103.823 52.1608 103.929 52.2335 104.046 52.2829C104.164 52.3323 104.29 52.3573 104.417 52.3564C104.544 52.3555 104.67 52.3287 104.786 52.2776C104.903 52.2265 105.008 52.1523 105.095 52.0593C105.423 51.7424 105.739 51.4265 106.056 51.0984C106.229 50.9195 106.323 50.6793 106.319 50.4307C106.314 50.1821 106.211 49.9454 106.032 49.7727C105.853 49.6001 105.613 49.5055 105.365 49.5099C105.116 49.5143 104.879 49.6173 104.707 49.7962H104.711Z" fill="url(#paint3_linear_4941_5816)"/>
<path d="M95.0496 26.0527C92.7821 26.053 90.5443 26.5672 88.5042 27.5569C86.4642 28.5465 84.675 29.9857 83.2712 31.7663C81.8675 33.547 80.8856 35.6226 80.3995 37.8373C79.9134 40.052 79.9358 42.3481 80.4648 44.553C80.9938 46.7578 82.0158 48.814 83.4539 50.567C84.892 52.3201 86.7088 53.7242 88.7677 54.674C90.8266 55.6238 93.074 56.0945 95.341 56.0507C97.608 56.0069 99.8355 55.4498 101.856 54.4211C102.057 54.3109 102.208 54.1265 102.275 53.9073C102.343 53.688 102.322 53.451 102.218 53.2466C102.114 53.0422 101.934 52.8864 101.717 52.8123C101.5 52.7382 101.262 52.7516 101.055 52.8496C98.2478 54.2782 95.023 54.6585 91.9604 53.9221C88.8979 53.1856 86.1986 51.3808 84.3478 48.832C82.497 46.2833 81.6161 43.1579 81.8637 40.0178C82.1112 36.8777 83.4708 33.9289 85.6981 31.7017C87.9253 29.4744 90.8741 28.1147 94.0142 27.8672C97.1543 27.6197 100.28 28.5005 102.828 30.3513C105.377 32.2021 107.182 34.9015 107.918 37.964C108.655 41.0266 108.275 44.2514 106.846 47.0586C106.748 47.266 106.735 47.5035 106.809 47.7207C106.883 47.9378 107.039 48.1176 107.243 48.2218C107.447 48.326 107.684 48.3465 107.904 48.2789C108.123 48.2113 108.307 48.061 108.418 47.8598C109.582 45.5729 110.14 43.0255 110.039 40.4612C109.938 37.8969 109.18 35.4014 107.839 33.2135C106.498 31.0255 104.618 29.2183 102.379 27.9646C100.139 26.7109 97.6159 26.0526 95.0496 26.0527Z" fill="url(#paint4_linear_4941_5816)"/>
<path d="M86.8125 16.875H68.0625C67.8139 16.875 67.5754 16.9738 67.3996 17.1496C67.2238 17.3254 67.125 17.5639 67.125 17.8125C67.125 18.0611 67.2238 18.2996 67.3996 18.4754C67.5754 18.6512 67.8139 18.75 68.0625 18.75H86.8125C87.0611 18.75 87.2996 18.6512 87.4754 18.4754C87.6512 18.2996 87.75 18.0611 87.75 17.8125C87.75 17.5639 87.6512 17.3254 87.4754 17.1496C87.2996 16.9738 87.0611 16.875 86.8125 16.875ZM86.8125 22.5H68.0625C67.8139 22.5 67.5754 22.5988 67.3996 22.7746C67.2238 22.9504 67.125 23.1889 67.125 23.4375C67.125 23.6861 67.2238 23.9246 67.3996 24.1004C67.5754 24.2762 67.8139 24.375 68.0625 24.375H86.8125C87.0611 24.375 87.2996 24.2762 87.4754 24.1004C87.6512 23.9246 87.75 23.6861 87.75 23.4375C87.75 23.1889 87.6512 22.9504 87.4754 22.7746C87.2996 22.5988 87.0611 22.5 86.8125 22.5Z" fill="url(#paint5_linear_4941_5816)"/>
<path d="M80.25 29.0625C80.25 28.8139 80.1512 28.5754 79.9754 28.3996C79.7996 28.2238 79.5611 28.125 79.3125 28.125H68.0625C67.8139 28.125 67.5754 28.2238 67.3996 28.3996C67.2238 28.5754 67.125 28.8139 67.125 29.0625C67.125 29.3111 67.2238 29.5496 67.3996 29.7254C67.5754 29.9012 67.8139 30 68.0625 30H79.3125C79.5611 30 79.7996 29.9012 79.9754 29.7254C80.1512 29.5496 80.25 29.3111 80.25 29.0625Z" fill="url(#paint6_linear_4941_5816)"/>
<path d="M68.0625 33.75C67.8139 33.75 67.5754 33.8488 67.3996 34.0246C67.2238 34.2004 67.125 34.4389 67.125 34.6875C67.125 34.9361 67.2238 35.1746 67.3996 35.3504C67.5754 35.5262 67.8139 35.625 68.0625 35.625H75.5625C75.8111 35.625 76.0496 35.5262 76.2254 35.3504C76.4012 35.1746 76.5 34.9361 76.5 34.6875C76.5 34.4389 76.4012 34.2004 76.2254 34.0246C76.0496 33.8488 75.8111 33.75 75.5625 33.75H68.0625Z" fill="url(#paint7_linear_4941_5816)"/>
<path d="M102.946 36.9205C102.946 35.9153 102.554 34.9697 101.843 34.2605C101.133 33.5514 100.188 33.1582 99.1834 33.1582C98.1957 33.1556 97.2473 33.5445 96.5458 34.2398C96.5234 34.2605 89.9377 40.8454 89.9377 40.8454C89.6283 41.1548 89.343 41.6002 89.1356 42.1012C88.9739 42.4935 87.4941 46.9642 87.198 47.8567C87.1499 48.0025 87.1432 48.1589 87.1787 48.3084C87.2142 48.4578 87.2906 48.5945 87.3992 48.7031C87.5078 48.8117 87.6445 48.888 87.7939 48.9236C87.9434 48.9591 88.0997 48.9524 88.2456 48.9043C89.1381 48.6098 93.6079 47.1284 94.0002 46.9667C94.5004 46.761 94.9458 46.4757 95.2568 46.1646L97.0459 44.3764L97.109 44.3846C97.6398 44.3846 98.1707 44.1823 98.5762 43.7775L102.309 40.045C102.582 39.771 102.773 39.4256 102.859 39.0484C102.945 38.6711 102.923 38.2773 102.796 37.9117C102.885 37.5916 102.946 37.2623 102.946 36.9205ZM93.1053 45.5293C92.7685 45.6479 92.1556 45.8552 91.4149 46.1024L90.0015 44.6891C90.2512 43.9475 90.4585 43.3338 90.5747 42.9987L93.1053 45.5293ZM89.7071 45.5683L90.5357 46.3969L89.2932 46.8108L89.7071 45.5683ZM96.0921 42.9862L94.0848 44.9935L93.8899 45.1428L90.962 42.2157L91.1113 42.0216L97.026 36.1069L99.2912 38.3721L96.2306 41.4327C95.8051 41.8574 95.7752 42.5018 96.0921 42.9862ZM101.135 38.873L97.4026 42.6055C97.3246 42.6831 97.219 42.7267 97.109 42.7267C96.9989 42.7267 96.8934 42.6831 96.8154 42.6055C96.7376 42.5277 96.6939 42.4223 96.6939 42.3123C96.6939 42.2023 96.7376 42.0969 96.8154 42.0191L100.548 38.2866C100.626 38.2093 100.731 38.1659 100.841 38.1659C100.951 38.1659 101.056 38.2093 101.134 38.2866C101.173 38.325 101.204 38.3707 101.225 38.421C101.246 38.4712 101.256 38.5252 101.256 38.5797C101.256 38.6341 101.246 38.6881 101.225 38.7384C101.204 38.7888 101.174 38.8345 101.135 38.873ZM101.224 37.4099C101.007 37.3368 100.775 37.3253 100.552 37.3765C100.329 37.4278 100.125 37.5398 99.9622 37.7002L99.8776 37.7848L97.6124 35.5196L97.6771 35.4549C98.4933 34.6421 99.8768 34.6413 100.67 35.4359C100.866 35.6307 101.021 35.8625 101.127 36.1177C101.233 36.373 101.287 36.6467 101.286 36.923C101.287 37.0881 101.261 37.2498 101.224 37.4099Z" fill="#E04403"/>
<path d="M17.6514 93.3214C16.7037 93.3214 15.7932 93.1731 14.9197 92.8764C14.0461 92.5797 13.2839 92.1553 12.6329 91.6032C11.9819 91.0429 11.5163 90.3795 11.2361 89.6131L13.6465 88.7108C13.7866 89.1063 14.0544 89.4607 14.4499 89.7738C14.8537 90.0787 15.3317 90.3177 15.8838 90.4907C16.4442 90.6638 17.0334 90.7503 17.6514 90.7503C18.3107 90.7503 18.9287 90.6432 19.5056 90.4289C20.0906 90.2147 20.5604 89.918 20.9147 89.5389C21.2773 89.1599 21.4586 88.7149 21.4586 88.204C21.4586 87.6766 21.2691 87.2439 20.89 86.9061C20.5192 86.5682 20.0412 86.3004 19.4561 86.1026C18.8793 85.9048 18.2777 85.7565 17.6514 85.6576C16.44 85.4598 15.3523 85.1714 14.3881 84.7923C13.4322 84.4133 12.6741 83.8817 12.1137 83.1978C11.5616 82.5138 11.2855 81.6238 11.2855 80.5278C11.2855 79.4977 11.5781 78.5995 12.1632 77.8331C12.7565 77.0667 13.5352 76.4734 14.4994 76.0532C15.4718 75.6246 16.5225 75.4104 17.6514 75.4104C18.5826 75.4104 19.4808 75.5587 20.3461 75.8554C21.2196 76.1438 21.986 76.5682 22.6452 77.1286C23.3127 77.6807 23.7907 78.3523 24.0791 79.1434L21.644 80.021C21.5039 79.6172 21.2361 79.267 20.8405 78.9703C20.445 78.6654 19.967 78.4265 19.4067 78.2534C18.8546 78.0803 18.2695 77.9938 17.6514 77.9938C16.9922 77.9856 16.3741 78.0927 15.7973 78.3152C15.2287 78.5295 14.7631 78.8261 14.4005 79.2052C14.0379 79.5843 13.8566 80.0251 13.8566 80.5278C13.8566 81.1459 14.0255 81.6156 14.3634 81.937C14.7013 82.2583 15.1545 82.4973 15.7231 82.6539C16.3 82.8022 16.9427 82.9382 17.6514 83.0618C18.7886 83.2431 19.8393 83.5439 20.8035 83.9642C21.7759 84.3844 22.5546 84.9448 23.1397 85.6452C23.733 86.3375 24.0297 87.1904 24.0297 88.204C24.0297 89.2258 23.733 90.124 23.1397 90.8986C22.5546 91.665 21.7759 92.2625 20.8035 92.691C19.8393 93.1112 18.7886 93.3214 17.6514 93.3214ZM26.5723 93V80.6391H29.1434V81.9493C29.5719 81.4384 30.0952 81.0346 30.7133 80.7379C31.3396 80.4413 32.0153 80.293 32.7405 80.293C33.6222 80.293 34.4339 80.5072 35.1756 80.9357C35.9172 81.356 36.5064 81.9164 36.9432 82.6168C37.3799 81.9164 37.9609 81.356 38.6861 80.9357C39.4195 80.5072 40.2271 80.293 41.1088 80.293C42.0235 80.293 42.8558 80.5155 43.6057 80.9604C44.3556 81.4054 44.9531 82.0029 45.3981 82.7528C45.8431 83.5027 46.0656 84.335 46.0656 85.2497V93H43.4945V85.9048C43.4945 85.3609 43.3626 84.8624 43.0989 84.4091C42.8352 83.9559 42.4809 83.5892 42.0359 83.309C41.5909 83.0288 41.0965 82.8888 40.5526 82.8888C40.0087 82.8888 39.5143 83.0206 39.0693 83.2843C38.6243 83.548 38.2699 83.9065 38.0062 84.3597C37.7425 84.8129 37.6107 85.328 37.6107 85.9048V93H35.0396V85.9048C35.0396 85.328 34.9077 84.8129 34.644 84.3597C34.3803 83.9065 34.0219 83.548 33.5686 83.2843C33.1236 83.0206 32.6292 82.8888 32.0853 82.8888C31.5497 82.8888 31.0553 83.0288 30.602 83.309C30.157 83.5892 29.8027 83.9559 29.539 84.4091C29.2753 84.8624 29.1434 85.3609 29.1434 85.9048V93H26.5723ZM57.9174 80.6391H60.4884V93H57.905L57.8061 91.2077C57.4435 91.8422 56.9532 92.3531 56.3352 92.7404C55.7171 93.1277 54.9878 93.3214 54.1473 93.3214C53.2408 93.3214 52.3879 93.1525 51.5886 92.8146C50.7892 92.4685 50.0847 91.9905 49.4749 91.3807C48.8733 90.7709 48.4036 90.0705 48.0657 89.2794C47.7278 88.48 47.5589 87.623 47.5589 86.7083C47.5589 85.8265 47.7237 84.9984 48.0533 84.2237C48.383 83.4409 48.8403 82.7569 49.4254 82.1718C50.0105 81.5867 50.6862 81.1294 51.4526 80.7998C52.2272 80.4619 53.0554 80.293 53.9372 80.293C54.8354 80.293 55.6265 80.499 56.3105 80.911C57.0027 81.3148 57.5754 81.834 58.0286 82.4685L57.9174 80.6391ZM54.0855 90.8368C54.8107 90.8368 55.4452 90.6597 55.9891 90.3053C56.5329 89.9427 56.9532 89.4565 57.2499 88.8467C57.5548 88.2369 57.7072 87.5612 57.7072 86.8195C57.7072 86.0696 57.5548 85.3898 57.2499 84.78C56.945 84.1702 56.5206 83.6881 55.9767 83.3337C55.4411 82.9712 54.8107 82.7899 54.0855 82.7899C53.3685 82.7899 52.7134 82.9712 52.1201 83.3337C51.5268 83.6963 51.0571 84.1825 50.7109 84.7923C50.3648 85.4021 50.1918 86.0779 50.1918 86.8195C50.1918 87.5694 50.369 88.2493 50.7233 88.8591C51.0859 89.4607 51.5597 89.9427 52.1448 90.3053C52.7381 90.6597 53.385 90.8368 54.0855 90.8368ZM62.955 93V80.6391H65.5261V81.9493C65.9546 81.4384 66.482 81.0346 67.1083 80.7379C67.7346 80.4413 68.4103 80.293 69.1355 80.293C69.597 80.293 70.0543 80.3548 70.5076 80.4784L69.4816 83.0742C69.1602 82.9506 68.8388 82.8888 68.5175 82.8888C67.9736 82.8888 67.475 83.0247 67.0218 83.2967C66.5685 83.5604 66.206 83.9188 65.934 84.3721C65.6621 84.8253 65.5261 85.328 65.5261 85.8801V93H62.955ZM78.7765 83.2101H76.1807L76.1683 93H73.5972L73.6096 83.2101H71.6442V80.6391H73.6096L73.5972 76.7577H76.1683L76.1807 80.6391H78.7765V83.2101ZM81.3603 93V75.6947H83.9314V93H81.3603ZM98.3913 85.2497V93H95.8203V85.8801C95.8203 85.328 95.6843 84.8253 95.4124 84.3721C95.1487 83.9188 94.7902 83.5604 94.337 83.2967C93.892 83.0247 93.3893 82.8888 92.8289 82.8888C92.285 82.8888 91.7865 83.0247 91.3332 83.2967C90.88 83.5604 90.5174 83.9188 90.2455 84.3721C89.9735 84.8253 89.8376 85.328 89.8376 85.8801V93H87.2665V80.6391H89.8376V81.9493C90.2661 81.4384 90.7935 81.0346 91.4198 80.7379C92.0461 80.4413 92.7218 80.293 93.447 80.293C94.3617 80.293 95.194 80.5155 95.9439 80.9604C96.6938 81.4054 97.2871 82.0029 97.7238 82.7528C98.1688 83.5027 98.3913 84.335 98.3913 85.2497ZM107.47 93H104.17L99.6583 80.6143H102.402L105.814 90.0334L109.238 80.6143H111.97L107.47 93ZM118.827 93.3214C117.69 93.3214 116.652 93.0288 115.712 92.4438C114.781 91.8587 114.036 91.0758 113.475 90.0952C112.923 89.1063 112.647 88.0144 112.647 86.8195C112.647 85.9131 112.808 85.0684 113.129 84.2855C113.45 83.4944 113.891 82.8022 114.452 82.2089C115.02 81.6073 115.68 81.1376 116.429 80.7998C117.179 80.4619 117.979 80.293 118.827 80.293C119.965 80.293 120.999 80.5855 121.93 81.1706C122.869 81.7557 123.615 82.5426 124.167 83.5315C124.728 84.5204 125.008 85.6164 125.008 86.8195C125.008 87.7178 124.847 88.5583 124.526 89.3412C124.204 90.124 123.759 90.8162 123.191 91.4178C122.63 92.0111 121.975 92.4767 121.225 92.8146C120.484 93.1525 119.684 93.3214 118.827 93.3214ZM118.827 90.7503C119.511 90.7503 120.125 90.569 120.669 90.2064C121.213 89.8438 121.642 89.3659 121.955 88.7726C122.276 88.171 122.437 87.52 122.437 86.8195C122.437 86.1026 122.272 85.4433 121.942 84.8418C121.621 84.2402 121.188 83.7623 120.645 83.4079C120.101 83.0453 119.495 82.864 118.827 82.864C118.152 82.864 117.538 83.0453 116.986 83.4079C116.442 83.7705 116.009 84.2526 115.688 84.8541C115.375 85.4557 115.218 86.1108 115.218 86.8195C115.218 87.5529 115.383 88.2163 115.712 88.8096C116.042 89.403 116.479 89.8768 117.023 90.2311C117.575 90.5773 118.176 90.7503 118.827 90.7503ZM126.764 80.6391H129.335V93H126.764V80.6391ZM128.074 78.8467C127.678 78.8467 127.349 78.719 127.085 78.4635C126.821 78.2081 126.689 77.8867 126.689 77.4994C126.689 77.1203 126.821 76.803 127.085 76.5476C127.349 76.2839 127.674 76.152 128.061 76.152C128.441 76.152 128.762 76.2839 129.026 76.5476C129.289 76.803 129.421 77.1203 129.421 77.4994C129.421 77.8867 129.289 78.2081 129.026 78.4635C128.77 78.719 128.453 78.8467 128.074 78.8467ZM140.147 89.4895L142.446 90.7379C141.885 91.5208 141.173 92.1471 140.307 92.6168C139.45 93.0865 138.519 93.3214 137.514 93.3214C136.377 93.3214 135.338 93.0288 134.399 92.4438C133.468 91.8587 132.722 91.0758 132.161 90.0952C131.609 89.1063 131.333 88.0144 131.333 86.8195C131.333 85.9131 131.494 85.0684 131.815 84.2855C132.137 83.4944 132.578 82.8022 133.138 82.2089C133.707 81.6073 134.366 81.1376 135.116 80.7998C135.866 80.4619 136.665 80.293 137.514 80.293C138.519 80.293 139.45 80.5278 140.307 80.9975C141.173 81.4672 141.885 82.0977 142.446 82.8888L140.147 84.1372C139.8 83.7252 139.397 83.412 138.935 83.1978C138.474 82.9753 138 82.864 137.514 82.864C136.838 82.864 136.224 83.0494 135.672 83.4203C135.128 83.7829 134.695 84.2649 134.374 84.8665C134.061 85.4598 133.904 86.1108 133.904 86.8195C133.904 87.52 134.065 88.171 134.386 88.7726C134.708 89.3659 135.14 89.8438 135.684 90.2064C136.236 90.569 136.846 90.7503 137.514 90.7503C138.025 90.7503 138.511 90.6349 138.972 90.4042C139.434 90.1735 139.825 89.8686 140.147 89.4895ZM149.802 93.3214C148.665 93.3214 147.627 93.0288 146.687 92.4438C145.756 91.8587 145.01 91.0758 144.45 90.0952C143.898 89.1063 143.622 88.0144 143.622 86.8195C143.622 85.9131 143.782 85.0684 144.104 84.2855C144.425 83.4944 144.866 82.8022 145.426 82.2089C145.995 81.6073 146.654 81.1376 147.404 80.7998C148.154 80.4619 148.953 80.293 149.802 80.293C150.75 80.293 151.619 80.4907 152.41 80.8863C153.201 81.2736 153.877 81.8133 154.438 82.5056C154.998 83.1895 155.41 83.9806 155.674 84.8789C155.937 85.7689 156.016 86.7165 155.909 87.7219H146.378C146.485 88.2905 146.691 88.8055 146.996 89.267C147.309 89.7202 147.705 90.0787 148.183 90.3424C148.669 90.6061 149.209 90.7421 149.802 90.7503C150.429 90.7503 150.997 90.5937 151.508 90.2806C152.027 89.9674 152.452 89.5348 152.781 88.9827L155.389 89.5884C154.895 90.6844 154.149 91.5826 153.152 92.2831C152.155 92.9753 151.038 93.3214 149.802 93.3214ZM146.292 85.7565H153.313C153.23 85.1632 153.02 84.6275 152.682 84.1496C152.353 83.6634 151.937 83.2802 151.434 83C150.939 82.7116 150.396 82.5674 149.802 82.5674C149.217 82.5674 148.673 82.7075 148.171 82.9876C147.676 83.2678 147.264 83.651 146.934 84.1372C146.613 84.6152 146.399 85.1549 146.292 85.7565Z" fill="black"/>
<path d="M110.522 100.646C111.123 100.646 111.671 100.793 112.166 101.085C112.66 101.378 113.054 101.771 113.346 102.266C113.639 102.756 113.785 103.3 113.785 103.897C113.785 104.347 113.701 104.769 113.532 105.164C113.363 105.56 113.128 105.908 112.827 106.209C112.53 106.506 112.184 106.738 111.789 106.907C111.397 107.076 110.975 107.161 110.522 107.161C110.134 107.161 109.79 107.074 109.49 106.901C109.193 106.724 108.944 106.495 108.742 106.215V107H107.234V97.7293H108.742V101.592C108.944 101.312 109.193 101.085 109.49 100.912C109.79 100.735 110.134 100.646 110.522 100.646ZM110.503 105.702C110.825 105.702 111.115 105.622 111.375 105.461C111.638 105.296 111.848 105.078 112.005 104.806C112.162 104.534 112.24 104.231 112.24 103.897C112.24 103.568 112.162 103.267 112.005 102.995C111.848 102.719 111.638 102.501 111.375 102.34C111.111 102.179 110.82 102.099 110.503 102.099C110.19 102.099 109.91 102.181 109.663 102.346C109.415 102.507 109.222 102.725 109.082 103.001C108.942 103.273 108.872 103.572 108.872 103.897C108.872 104.231 108.942 104.536 109.082 104.812C109.222 105.084 109.415 105.3 109.663 105.461C109.91 105.622 110.19 105.702 110.503 105.702ZM118.608 100.82H120.208L116.828 110.09H115.227L116.346 107L114.121 100.82H115.771L117.1 104.936L118.608 100.82ZM128.416 107.161C127.814 107.161 127.254 107.043 126.735 106.808C126.22 106.574 125.771 106.25 125.388 105.838C125.004 105.422 124.704 104.944 124.485 104.404C124.271 103.86 124.164 103.279 124.164 102.661C124.164 102.01 124.279 101.413 124.51 100.869C124.745 100.325 125.064 99.8533 125.468 99.4536C125.872 99.054 126.329 98.745 126.84 98.5266C127.355 98.3082 127.891 98.199 128.447 98.199C129.069 98.199 129.673 98.3453 130.258 98.6378C130.847 98.9262 131.366 99.3733 131.815 99.979L130.468 100.702C130.192 100.364 129.875 100.113 129.516 99.9481C129.162 99.7792 128.799 99.6947 128.428 99.6947C128.066 99.6947 127.718 99.7689 127.384 99.9172C127.054 100.066 126.76 100.276 126.5 100.548C126.245 100.815 126.043 101.133 125.894 101.499C125.746 101.862 125.672 102.26 125.672 102.692C125.672 103.1 125.744 103.485 125.888 103.848C126.032 104.206 126.23 104.522 126.482 104.794C126.737 105.061 127.032 105.272 127.365 105.424C127.699 105.576 128.058 105.653 128.441 105.653C128.696 105.653 128.945 105.614 129.189 105.535C129.436 105.453 129.667 105.335 129.881 105.183C130.099 105.03 130.293 104.845 130.462 104.627C130.635 104.408 130.779 104.161 130.894 103.885H129.318V102.569H132.668C132.685 103.199 132.586 103.79 132.372 104.342C132.157 104.895 131.854 105.383 131.463 105.807C131.072 106.232 130.616 106.563 130.097 106.802C129.578 107.041 129.018 107.161 128.416 107.161ZM139.968 98.3473V99.8554H137.322V107H135.814V99.8554H133.169V98.3473H139.968ZM144.712 107.161C144.127 107.161 143.577 107.045 143.062 106.815C142.547 106.58 142.094 106.256 141.702 105.844C141.315 105.432 141.01 104.956 140.788 104.417C140.569 103.873 140.46 103.292 140.46 102.674C140.46 102.052 140.569 101.471 140.788 100.931C141.01 100.387 141.315 99.911 141.702 99.5031C142.094 99.0911 142.547 98.7697 143.062 98.5389C143.577 98.3041 144.127 98.1866 144.712 98.1866C145.413 98.1866 146.057 98.3494 146.647 98.6749C147.236 98.9963 147.724 99.4269 148.111 99.9666L146.764 100.69C146.521 100.389 146.218 100.148 145.856 99.9666C145.497 99.7853 145.116 99.6947 144.712 99.6947C144.333 99.6947 143.977 99.773 143.643 99.9295C143.309 100.082 143.017 100.296 142.765 100.572C142.514 100.844 142.318 101.162 142.178 101.524C142.038 101.883 141.968 102.266 141.968 102.674C141.968 103.086 142.038 103.471 142.178 103.829C142.322 104.188 142.52 104.505 142.772 104.781C143.023 105.053 143.313 105.267 143.643 105.424C143.977 105.576 144.333 105.653 144.712 105.653C145.124 105.653 145.507 105.562 145.862 105.381C146.22 105.195 146.521 104.952 146.764 104.651L148.111 105.381C147.724 105.916 147.236 106.347 146.647 106.672C146.057 106.998 145.413 107.161 144.712 107.161ZM153.247 107.161C152.662 107.161 152.112 107.045 151.597 106.815C151.082 106.58 150.628 106.256 150.237 105.844C149.846 105.432 149.539 104.956 149.316 104.417C149.094 103.873 148.982 103.292 148.982 102.674C148.982 102.056 149.094 101.477 149.316 100.937C149.539 100.393 149.846 99.9151 150.237 99.5031C150.628 99.0911 151.082 98.7697 151.597 98.5389C152.112 98.3041 152.662 98.1866 153.247 98.1866C153.836 98.1866 154.388 98.3041 154.903 98.5389C155.418 98.7697 155.871 99.0911 156.263 99.5031C156.654 99.9151 156.959 100.393 157.178 100.937C157.4 101.477 157.511 102.056 157.511 102.674C157.511 103.292 157.4 103.873 157.178 104.417C156.959 104.956 156.654 105.432 156.263 105.844C155.871 106.256 155.418 106.58 154.903 106.815C154.388 107.045 153.836 107.161 153.247 107.161ZM153.247 105.653C153.626 105.653 153.982 105.574 154.316 105.418C154.65 105.261 154.942 105.047 155.194 104.775C155.449 104.499 155.647 104.182 155.787 103.823C155.931 103.465 156.003 103.082 156.003 102.674C156.003 102.266 155.931 101.883 155.787 101.524C155.643 101.162 155.443 100.844 155.187 100.572C154.936 100.3 154.644 100.086 154.31 99.9295C153.98 99.773 153.626 99.6947 153.247 99.6947C152.868 99.6947 152.511 99.773 152.178 99.9295C151.844 100.086 151.549 100.302 151.294 100.578C151.042 100.85 150.845 101.166 150.7 101.524C150.56 101.883 150.49 102.266 150.49 102.674C150.49 103.086 150.562 103.471 150.707 103.829C150.851 104.188 151.049 104.505 151.3 104.781C151.555 105.053 151.848 105.267 152.178 105.424C152.511 105.576 152.868 105.653 153.247 105.653Z" fill="#E04403"/>
<defs>
<linearGradient id="paint0_linear_4941_5816" x1="70.875" y1="59.9897" x2="70.875" y2="-0.000935997" gradientUnits="userSpaceOnUse">
<stop stop-color="#E04403"/>
</linearGradient>
<linearGradient id="paint1_linear_4941_5816" x1="82.125" y1="60" x2="82.125" y2="0.00937518" gradientUnits="userSpaceOnUse">
<stop stop-color="#E04403"/>
</linearGradient>
<linearGradient id="paint2_linear_4941_5816" x1="62.4375" y1="59.9897" x2="62.4375" y2="-0.000939073" gradientUnits="userSpaceOnUse">
<stop stop-color="#E04403"/>
</linearGradient>
<linearGradient id="paint3_linear_4941_5816" x1="104.917" y1="59.9906" x2="104.917" y2="-7.31267e-05" gradientUnits="userSpaceOnUse">
<stop stop-color="#E04403"/>
</linearGradient>
<linearGradient id="paint4_linear_4941_5816" x1="95.0496" y1="59.5733" x2="95.0496" y2="3.11007" gradientUnits="userSpaceOnUse">
<stop stop-color="#E04403"/>
</linearGradient>
<linearGradient id="paint5_linear_4941_5816" x1="77.4375" y1="59.9897" x2="77.4375" y2="-0.00093885" gradientUnits="userSpaceOnUse">
<stop stop-color="#E04403"/>
</linearGradient>
<linearGradient id="paint6_linear_4941_5816" x1="73.6875" y1="59.9897" x2="73.6875" y2="-0.000936615" gradientUnits="userSpaceOnUse">
<stop stop-color="#E04403"/>
</linearGradient>
<linearGradient id="paint7_linear_4941_5816" x1="71.8125" y1="59.9897" x2="71.8125" y2="-0.000937286" gradientUnits="userSpaceOnUse">
<stop stop-color="#E04403"/>
</linearGradient>
</defs>
</svg>
