<svg width="40" height="40" viewBox="0 0 40 40" fill="none" xmlns="http://www.w3.org/2000/svg">
<g clip-path="url(#clip0_4679_5316)">
<path d="M27.4953 11.4004L16.1728 22.7229L7.98291 18.6927L27.4953 11.4004ZM28.6086 12.505L21.3076 32.0261L17.286 23.8276L28.6086 12.505Z" fill="#38D300"/>
<path d="M36.8761 9.26859C34.2922 5.20639 30.3293 2.21286 25.7155 0.837811C21.1017 -0.537236 16.1466 -0.201465 11.7605 1.78345C7.37432 3.76837 3.85158 7.26916 1.83927 11.6428C-0.173038 16.0165 -0.539787 20.9693 0.806382 25.5917C2.15255 30.214 5.12125 34.1955 9.16721 36.8048C13.2132 39.4141 18.0647 40.476 22.8308 39.7955C27.5968 39.115 31.9573 36.7378 35.1114 33.1005C38.2655 29.4632 40.0014 24.81 40.0002 19.9957C40.0074 16.1946 38.9231 12.4714 36.8761 9.26859ZM31.3616 9.57064V9.66557L22.1534 34.2783C22.101 34.4216 22.0076 34.5463 21.8848 34.6368C21.762 34.7274 21.6153 34.7798 21.463 34.7875C21.3158 34.7869 21.1717 34.7454 21.0467 34.6677C20.9218 34.59 20.8209 34.4791 20.7553 34.3473L15.8017 24.2589L5.66144 19.3053C5.52292 19.2389 5.40718 19.133 5.32884 19.0009C5.25049 18.8688 5.21308 18.7165 5.22132 18.5631C5.22845 18.4095 5.2805 18.2614 5.37101 18.1372C5.46152 18.0129 5.58651 17.918 5.73048 17.8641L30.3432 8.65586H30.4295C30.4783 8.6517 30.5274 8.6517 30.5762 8.65586H30.8351L30.9559 8.70764H31.0422L31.1372 8.80257L31.2321 8.8975V8.9838C31.253 9.02538 31.2704 9.06869 31.2839 9.11325C31.2881 9.1563 31.2881 9.19965 31.2839 9.2427C31.2925 9.28542 31.2925 9.32943 31.2839 9.37215C31.3301 9.42846 31.3573 9.49794 31.3616 9.57064Z" fill="#38D300"/>
</g>
<defs>
<clipPath id="clip0_4679_5316">
<rect width="40" height="40" fill="white"/>
</clipPath>
</defs>
</svg>
